<svg width="19" height="22" viewBox="0 0 19 22" fill="none" xmlns="http://www.w3.org/2000/svg">
<path fill-rule="evenodd" clip-rule="evenodd" d="M16.2377 19.5511C16.2377 20.0918 16.0228 20.6104 15.6405 20.9928C15.2581 21.3752 14.7395 21.59 14.1987 21.59H3.95579C3.41503 21.59 2.89641 21.3752 2.51404 20.9928C2.13166 20.6104 1.91685 20.0918 1.91685 19.5511V6.08324H16.2374V19.5511H16.2377ZM1.00892 3.36905H17.1451C17.4127 3.36905 17.6693 3.47535 17.8585 3.66456C18.0477 3.85377 18.154 4.11039 18.154 4.37797C18.154 4.64555 18.0477 4.90217 17.8585 5.09138C17.6693 5.28059 17.4127 5.38689 17.1451 5.38689H1.00892C0.741335 5.38689 0.484713 5.28059 0.295505 5.09138C0.106296 4.90217 0 4.64555 0 4.37797C0 4.11039 0.106296 3.85377 0.295505 3.66456C0.484713 3.47535 0.741335 3.36905 1.00892 3.36905ZM5.83665 17.7887H5.84481C6.1215 17.7882 6.38669 17.678 6.58225 17.4822C6.77781 17.2865 6.88777 17.0212 6.88803 16.7445V10.928C6.88809 10.6511 6.77826 10.3856 6.58266 10.1896C6.38706 9.99363 6.12168 9.88332 5.84481 9.88287H5.83665C5.55994 9.88338 5.29474 9.99363 5.09921 10.1894C4.90368 10.3852 4.7938 10.6506 4.79367 10.9273V16.7445C4.79393 17.0212 4.90386 17.2864 5.09936 17.4822C5.29487 17.6779 5.56001 17.7881 5.83665 17.7887ZM5.48979 10.9283V16.7445C5.48985 16.8366 5.52639 16.9249 5.5914 16.9901C5.6564 17.0552 5.74459 17.092 5.83665 17.0923H5.84481C5.93691 17.0921 6.02516 17.0553 6.09022 16.9901C6.15528 16.9249 6.19185 16.8366 6.19191 16.7445V10.928C6.19191 10.8359 6.15537 10.7475 6.0903 10.6822C6.02524 10.617 5.93695 10.5802 5.84481 10.58H5.83665C5.74455 10.5803 5.65633 10.6171 5.59131 10.6823C5.5263 10.7476 5.48979 10.8361 5.48979 10.9283ZM12.3092 17.7887H12.3174C12.5943 17.7883 12.8598 17.6782 13.0557 17.4825C13.2517 17.2868 13.3621 17.0214 13.3627 16.7445V10.928C13.3623 10.6509 13.252 10.3853 13.0561 10.1894C12.8601 9.99348 12.5945 9.88325 12.3174 9.88287H12.3092C12.0325 9.88332 11.7672 9.99354 11.5716 10.1893C11.376 10.3851 11.2661 10.6505 11.266 10.9273V16.7445C11.2663 17.0212 11.3762 17.2865 11.5718 17.4822C11.7673 17.678 12.0325 17.7882 12.3092 17.7887ZM11.9621 10.9283V16.7445C11.9622 16.8366 11.9988 16.9249 12.0639 16.9901C12.1289 17.0552 12.2171 17.092 12.3092 17.0923H12.3174C12.4095 17.092 12.4977 17.0552 12.5627 16.9901C12.6278 16.9249 12.6643 16.8366 12.6645 16.7445V10.928C12.6644 10.8359 12.6278 10.7475 12.5628 10.6823C12.4977 10.6171 12.4095 10.5803 12.3174 10.58H12.3092C12.2171 10.5803 12.1288 10.6171 12.0638 10.6823C11.9987 10.7475 11.9622 10.8361 11.9621 10.9283ZM9.07305 18.5947H9.08121C9.35798 18.5942 9.62325 18.4839 9.81882 18.2881C10.0144 18.0922 10.1243 17.8268 10.1244 17.55V10.1227C10.1242 9.84604 10.0143 9.5807 9.81872 9.38495C9.62315 9.1892 9.35792 9.07902 9.08121 9.07857H9.07305C8.79635 9.07902 8.53111 9.1892 8.33554 9.38495C8.13997 9.5807 8.03003 9.84604 8.02983 10.1227V17.55C8.02996 17.8268 8.13987 18.0922 8.33544 18.2881C8.53101 18.4839 8.79628 18.5942 9.07305 18.5947ZM8.72595 10.1227V17.55C8.72602 17.6422 8.76257 17.7305 8.82761 17.7958C8.89266 17.8611 8.98091 17.8979 9.07305 17.8983H9.08121C9.17336 17.8979 9.2616 17.8611 9.32665 17.7958C9.3917 17.7305 9.42825 17.6422 9.42831 17.55V10.1227C9.42825 10.0306 9.39168 9.94232 9.32662 9.87713C9.26156 9.81193 9.17331 9.77518 9.08121 9.77493H9.07305C8.98095 9.77518 8.8927 9.81193 8.82764 9.87713C8.76258 9.94232 8.72602 10.0306 8.72595 10.1227ZM13.03 1.32675V2.67269H13.7257V1.32675C13.7252 0.975136 13.5854 0.638038 13.3368 0.389341C13.0883 0.140644 12.7513 0.000634635 12.3996 0H5.7551C5.4034 0.000507771 5.06625 0.140461 4.81758 0.389172C4.56892 0.637883 4.42903 0.975053 4.42858 1.32675V2.67269H5.12422V1.32675C5.12422 1.15949 5.19062 0.999078 5.30882 0.880742C5.42702 0.762406 5.58736 0.69583 5.75461 0.695639H12.3992C12.5665 0.695766 12.7269 0.762307 12.8452 0.880643C12.9635 0.998979 13.03 1.15943 13.03 1.32675Z" fill="#C1BFD9"/>
</svg>
