<svg width="23" height="23" viewBox="0 0 23 23" fill="none" xmlns="http://www.w3.org/2000/svg">
<path d="M15.9216 22.21H2.12685C0.954307 22.21 0 21.2566 0 20.0831V6.28794C0 5.11537 0.954283 4.16104 2.12685 4.16104H7.99234C8.5147 4.16104 8.93751 4.58386 8.93751 5.10623C8.93751 5.6286 8.5147 6.05142 7.99234 6.05142H2.12685C1.99626 6.05142 1.89033 6.15736 1.89033 6.28794V20.084C1.89033 20.2146 1.99626 20.3205 2.12685 20.3205H15.9226C16.0532 20.3205 16.1591 20.2146 16.1591 20.084L16.1582 14.2184C16.1582 13.696 16.581 13.2732 17.1033 13.2732C17.6257 13.2732 18.0485 13.696 18.0485 14.2184V20.084C18.0485 21.2566 17.0942 22.21 15.9216 22.21Z" fill="#C1BFD9"/>
<path d="M21.8764 4.16557L20.5513 5.49248C20.302 5.74179 19.8975 5.7427 19.6482 5.49248L16.7187 2.56387C16.4694 2.31456 16.4694 1.90999 16.7187 1.66069L18.0447 0.332862C18.4885 -0.110954 19.2099 -0.110954 19.6537 0.332862L21.8774 2.55655C22.3212 3.00128 22.3211 3.72175 21.8764 4.16557Z" fill="#C1BFD9"/>
<path d="M18.6466 7.39859L10.7173 15.3253C10.668 15.3746 10.6059 15.4084 10.5383 15.4239L6.24799 16.4056C5.98225 16.4668 5.74392 16.2285 5.80509 15.9627L6.78678 11.6723C6.8023 11.6047 6.837 11.5426 6.8854 11.4933L14.8147 3.56663C15.064 3.31732 15.4686 3.31732 15.7179 3.56663L18.6464 6.49524C18.8957 6.74455 18.8957 7.14911 18.6464 7.39842L18.6466 7.39859Z" fill="#C1BFD9"/>
</svg>
