<svg width="31" height="27" viewBox="0 0 31 27" fill="none" xmlns="http://www.w3.org/2000/svg">
<path fill-rule="evenodd" clip-rule="evenodd" d="M1.17383 8.2174H28.1738C27.8438 3.62788 24.2268 5.72205e-06 19.8259 5.72205e-06H9.52178C5.12266 5.72205e-06 1.50389 3.62812 1.17383 8.2174ZM8.9149 5.00784L8.27026 2.95344L9.49251 2.52026L10.1371 4.57466L8.9149 5.00784ZM20.4345 5.01332L19.2123 4.58014L19.8569 2.52574L21.0792 2.95892L20.4345 5.01332ZM14.0291 3.42318V1.36879H15.3167V3.42318H14.0291Z" fill="#C1BFD9"/>
<path fill-rule="evenodd" clip-rule="evenodd" d="M1.35428 12.9131C0.992658 12.9131 0.652742 13.0353 0.395981 13.2577C0.141035 13.4785 0 13.7745 0 14.0878C0 14.7346 0.607532 15.2609 1.3543 15.2609H9.39131L7.13296 12.9131L1.35428 12.9131Z" fill="#C1BFD9"/>
<path fill-rule="evenodd" clip-rule="evenodd" d="M11.7388 15.2609H29.1235C29.4968 15.2609 29.8476 15.1387 30.1127 14.9163C30.3758 14.6955 30.5214 14.3995 30.5214 14.0862C30.5214 13.4393 29.8943 12.9131 29.1235 12.9131H14.0698L11.7388 15.2609Z" fill="#C1BFD9"/>
<path fill-rule="evenodd" clip-rule="evenodd" d="M18.8598 22.1493L15.6949 18.7844H1.17383C1.32511 20.9046 2.1726 22.8749 3.60117 24.3937C5.18275 26.0752 7.28518 27 9.52166 27H19.8258C24.225 27 27.8438 23.3719 28.1738 18.7826H22.0245L18.8598 22.1493Z" fill="#C1BFD9"/>
<path fill-rule="evenodd" clip-rule="evenodd" d="M3.52173 17.5917H16.5436L19.2848 19.9566L22.0259 17.5917H27V16.4348H3.52356L3.52173 17.5917Z" fill="#C1BFD9"/>
<path fill-rule="evenodd" clip-rule="evenodd" d="M27 9.39134H3.52173V10.9694H7.86179L10.9002 15.2609L13.9403 10.9694H26.9998L27 9.39134Z" fill="#C1BFD9"/>
</svg>
