<svg width="25" height="23" viewBox="0 0 25 23" fill="none" xmlns="http://www.w3.org/2000/svg">
<path d="M20.8097 2.95639C20.8243 2.94468 20.8316 2.92764 20.8451 2.91487C21.1128 3.12353 21.4431 3.25341 21.8066 3.25341C22.6858 3.25341 23.3983 2.52523 23.3983 1.62671C23.3983 0.728186 22.6858 0 21.8066 0C20.9274 0 20.2149 0.728186 20.2149 1.62671C20.2149 1.8524 20.2608 2.06745 20.342 2.26332C20.3274 2.27184 20.3108 2.27503 20.2962 2.28674L16.4148 5.3901C16.3992 5.40287 16.3919 5.41991 16.3784 5.43375C16.1107 5.22509 15.7805 5.0952 15.4169 5.0952C14.7971 5.0952 14.2648 5.46143 14.0023 5.99053C13.9846 5.98415 13.97 5.97137 13.9513 5.96818L10.671 5.25065C10.6502 5.24639 10.6314 5.25065 10.6106 5.24958C10.5689 4.38941 9.87935 3.70379 9.02727 3.70379C8.14809 3.70379 7.43559 4.43198 7.43559 5.3305C7.43559 5.55619 7.48038 5.77018 7.56163 5.96499C7.546 5.97457 7.52934 5.97776 7.51476 5.98841L3.64089 9.04816C3.62422 9.06093 3.61589 9.07903 3.60235 9.09393C3.33464 8.88421 3.00235 8.75433 2.6388 8.75433C1.75963 8.75433 1.04712 9.48252 1.04712 10.381C1.04712 11.2796 1.75963 12.0077 2.6388 12.0077C3.51797 12.0077 4.23048 11.2796 4.23048 10.381C4.23048 10.1564 4.18569 9.94242 4.10548 9.74761C4.12006 9.73909 4.13673 9.73377 4.15131 9.72312L8.02518 6.66337C8.04185 6.6506 8.05018 6.63144 8.06477 6.61653C8.33351 6.82732 8.66477 6.9572 9.02935 6.9572C9.65018 6.9572 10.1825 6.58991 10.445 6.05974C10.4637 6.06613 10.4783 6.07891 10.4991 6.08316L13.7794 6.80069C13.7982 6.80495 13.8169 6.80495 13.8367 6.80708C13.8805 7.66513 14.569 8.34859 15.42 8.34859C16.2992 8.34859 17.0117 7.62041 17.0117 6.72189C17.0117 6.4962 16.9669 6.28114 16.8857 6.08634C16.9003 6.07675 16.9169 6.0725 16.9315 6.06079L20.8128 2.95743L20.8097 2.95639Z" fill="#C1BFD9"/>
<path d="M24.5856 22.1483H23.6773V8.24792H20.4938V22.1483H17.2877V13.0685H14.1042V22.1483H10.8981V11.9304H7.71459V22.1483H4.50845V16.7273H1.32499V22.1483H0.416667C0.186459 22.1483 0 22.3389 0 22.5741C0 22.8094 0.186459 23 0.416667 23H24.5833C24.8135 23 25 22.8094 25 22.5741C25 22.3389 24.8135 22.1483 24.5833 22.1483H24.5856Z" fill="#C1BFD9"/>
</svg>
