<svg width="24" height="23" viewBox="0 0 24 23" fill="none" xmlns="http://www.w3.org/2000/svg">
<path d="M23.9265 11.8769C23.8803 11.9864 23.8134 12.0845 23.7291 12.169L21.268 14.6021V14.6032C20.9079 14.9591 20.3241 14.9591 19.9629 14.6032C19.6029 14.2462 19.6029 13.669 19.9629 13.3131L20.8491 12.437H14.4613C13.9525 12.437 13.5382 12.0286 13.5382 11.5244C13.5382 11.0202 13.9525 10.6119 14.4613 10.6119H20.8491L19.9629 9.73581C19.6249 9.37648 19.6341 8.81641 19.986 8.4685C20.338 8.12059 20.9045 8.11145 21.2679 8.44569L23.7291 10.8788V10.8799C23.8134 10.9644 23.8803 11.0625 23.9264 11.172C24.0245 11.3967 24.0245 11.6522 23.9265 11.8769ZM19.3849 16.7443C18.8783 16.7512 18.4687 17.1561 18.4618 17.6569V20.09C18.4618 20.171 18.4295 20.2486 18.3718 20.3056C18.3141 20.3627 18.2356 20.3946 18.1537 20.3946H11.6921V2.70339H18.1537C18.2356 2.70339 18.3141 2.73533 18.3718 2.79236C18.4295 2.8494 18.4618 2.92696 18.4618 3.00681V5.44107C18.4618 5.94414 18.8748 6.35364 19.3849 6.35364C19.8949 6.35364 20.3079 5.94414 20.3079 5.44107V3.00681C20.301 1.83418 19.341 0.883969 18.1537 0.878245H11.2744C11.1578 0.718545 11.0217 0.575945 10.8682 0.451632C10.3455 0.0478258 9.66475 -0.094768 9.02205 0.0626603L1.63734 1.88779C0.675023 2.12278 -0.00115054 2.97718 1.47429e-06 3.95588V19.0931C-0.00115231 20.0718 0.675023 20.9262 1.63734 21.1612L9.02205 22.9863C9.19397 23.0046 9.36706 23.0046 9.53897 22.9863C10.0201 22.9863 10.4874 22.8277 10.8682 22.5357C11.0217 22.4125 11.1578 22.2688 11.2744 22.1102H18.1537C19.3179 22.1045 20.2687 21.1908 20.3079 20.0421V17.6079C20.301 17.1071 19.8914 16.7022 19.3849 16.6953V16.7443Z" fill="#C1BFD9"/>
</svg>
