<svg width="37" height="34" viewBox="0 0 37 34" fill="none" xmlns="http://www.w3.org/2000/svg">
<path d="M20.2178 5.98535C21.5824 5.83383 22.5738 6.65509 22.7002 7.46484L26.0869 29.1846C26.2045 29.9412 25.5669 30.9086 24.2158 31.0586L6.88379 32.9824C5.51934 33.1338 4.52763 32.3128 4.40137 31.5029L1.01562 9.78418C0.897729 9.02761 1.53473 8.06037 2.88574 7.91016L20.2178 5.98535ZM16.7773 1.01758L34.1104 2.9502H34.1113C35.3813 3.09124 36.0192 3.94878 35.9971 4.67871L35.9844 4.82324L32.6006 26.542C32.4748 27.349 31.4796 28.1666 30.1201 28.0146H30.1211L29.0723 27.8955L25.8174 7.02832V7.02539C25.4344 4.60879 23.0666 2.99617 20.5254 2.99609C20.3082 2.99609 20.0773 3.00792 19.8564 3.03125H19.8516L14.1162 3.66504L14.2969 2.49902C14.4157 1.73707 15.2928 0.968322 16.5264 1L16.7773 1.01758Z" fill="#78A55A" stroke="white" stroke-width="2"/>
</svg>
