<svg width="30" height="32" viewBox="0 0 30 32" fill="none" xmlns="http://www.w3.org/2000/svg">
<path d="M17.5279 5.98296L22.7769 11.232H26.9982L18.922 3.15578C18.8697 4.28834 18.338 5.29935 17.5261 5.98127L17.5279 5.98296Z" fill="#C1BFD9"/>
<path d="M12.4689 5.98351C11.6571 5.29657 11.1203 4.28889 11.0697 3.15802L2.99829 11.2342H7.21958L12.4686 5.9852L12.4689 5.98351Z" fill="#C1BFD9"/>
<path d="M13.1569 5.29146C13.2868 5.39442 13.4252 5.48556 13.567 5.56827C13.7189 5.65097 13.8776 5.72355 14.043 5.77925C14.3417 5.88221 14.6658 5.93453 14.9983 5.93453C15.3308 5.93453 15.6549 5.87883 15.9536 5.77419C16.1173 5.71849 16.2777 5.64929 16.4296 5.56321C16.5764 5.4805 16.7098 5.39104 16.8397 5.2864C17.5216 4.74123 17.9588 3.90405 17.9588 2.96559C17.9588 2.63646 17.9064 2.32251 17.8069 2.02713C17.6516 1.56466 17.3883 1.15452 17.0423 0.821985C16.9258 0.708898 16.8009 0.605939 16.6625 0.514794C16.1865 0.190725 15.6127 0 14.9949 0C14.3772 0 13.8016 0.190729 13.3307 0.514794C13.1973 0.605939 13.0674 0.708898 12.9509 0.821985C12.6049 1.15112 12.3365 1.56466 12.1863 2.02713C12.0867 2.32082 12.0344 2.63647 12.0344 2.96559C12.0344 3.90405 12.4749 4.74123 13.1585 5.2864L13.1569 5.29146Z" fill="#C1BFD9"/>
<path d="M1.31316 31.9084H28.6868C29.4126 31.9084 30 31.321 30 30.5952V13.5142C30 12.7884 29.4126 12.201 28.6868 12.201H1.31316C0.587381 12.201 0 12.7884 0 13.5142V30.5905C0 31.3163 0.592436 31.9037 1.31316 31.9037V31.9084ZM7.12432 20.868L13.6666 14.3257C14.021 13.9713 14.4869 13.7806 14.9882 13.7806H15.0101C15.5029 13.7806 15.9739 13.9747 16.3283 14.3257L22.8706 20.868C23.225 21.2174 23.4191 21.6883 23.4191 22.1896C23.4191 22.6909 23.2284 23.1449 22.8874 23.4943C22.8824 23.4994 22.879 23.5078 22.8705 23.5112C22.6022 23.7796 22.2697 23.9517 21.9068 24.026V29.275C21.9068 29.8591 21.4359 30.33 20.8519 30.33H9.77787C8.84447 30.33 8.08832 29.5738 8.08832 28.6404V24.0257C7.72543 23.9565 7.38786 23.7792 7.12455 23.5109C7.11948 23.5058 7.11611 23.5024 7.10767 23.494C6.76672 23.1446 6.57598 22.6821 6.57598 22.1893C6.57598 21.6964 6.76989 21.2174 7.12432 20.868Z" fill="#C1BFD9"/>
<path d="M14.9984 18.2808L9.76626 23.513C9.56709 23.7156 9.32069 23.8675 9.05737 23.9535V28.6374C9.05737 29.0357 9.37637 29.3548 9.77473 29.3548H12.3723V25.8339C12.3723 24.3992 13.4998 23.189 14.9311 23.1553C15.6535 23.1384 16.3354 23.4152 16.8502 23.9249C17.3464 24.4211 17.6198 25.0794 17.6198 25.7782V29.3564H20.2511C20.6309 29.3564 20.9381 29.0493 20.9381 28.6695V23.9554C20.6697 23.8642 20.4283 23.714 20.2258 23.5098L14.9967 18.2776L14.9984 18.2808Z" fill="#C1BFD9"/>
<path d="M7.82167 22.84C7.89931 22.9176 7.99045 22.9784 8.09003 23.0172C8.22844 23.0729 8.38035 23.0999 8.53055 23.0864C8.54743 23.0864 8.56093 23.0864 8.57443 23.0813C8.7601 23.056 8.92381 22.9784 9.05885 22.8518C9.06729 22.8434 9.07572 22.8383 9.08416 22.8299L14.6624 17.2516C14.7536 17.1604 14.8785 17.1098 15.0034 17.1098C15.1283 17.1098 15.2532 17.1621 15.3443 17.2516L20.9191 22.8264C20.9191 22.8264 20.936 22.8433 20.9444 22.8483C21.0778 22.9732 21.2466 23.0509 21.4289 23.0779C21.4424 23.0779 21.4592 23.0779 21.4727 23.083C21.628 23.0965 21.7749 23.0745 21.9133 23.0137C22.0128 22.9699 22.104 22.9108 22.1816 22.8365L22.1951 22.823C22.3639 22.6542 22.4584 22.4297 22.4584 22.1884C22.4584 21.947 22.3639 21.7225 22.1951 21.5487L15.6498 15.0033C15.4811 14.8345 15.2481 14.74 15.0068 14.74C14.757 14.74 14.5274 14.8312 14.3586 15.0033L7.81335 21.5487C7.64457 21.7174 7.55005 21.947 7.55005 22.1884C7.55005 22.4297 7.64119 22.6542 7.81335 22.823C7.81335 22.823 7.82179 22.8315 7.82686 22.8365L7.82167 22.84Z" fill="#C1BFD9"/>
<path d="M14.9978 24.1256C14.0864 24.1256 13.3438 24.8683 13.3438 25.7797V29.3579H16.6536V25.7797C16.6536 25.3392 16.4815 24.9239 16.1659 24.6134C15.8502 24.2978 15.435 24.1256 14.9996 24.1256H14.9978Z" fill="#C1BFD9"/>
</svg>
