<svg width="30" height="30" viewBox="0 0 30 30" fill="none" xmlns="http://www.w3.org/2000/svg">
<path fill-rule="evenodd" clip-rule="evenodd" d="M28.4485 12.0578L16.1275 18.1635C15.4619 18.4956 14.7517 18.4956 14.0837 18.1707L1.55391 12.0482C1.3043 11.9256 1.15431 11.684 1.15431 11.403V10.3697L0.450001 10.9316C0.157032 11.1638 0 11.4911 0 11.8697V27.618C0 28.9298 1.05351 30 2.34492 30H27.6551C28.9441 30 30 28.9298 30 27.618V11.8816C30 11.5078 29.8465 11.1851 29.5594 10.953L28.8422 10.3697V11.4149C28.8422 11.6935 28.6957 11.9351 28.4473 12.0577L28.4485 12.0578ZM4.30657 6.23315H25.6921C26.782 6.23315 27.6714 7.13667 27.6714 8.2438V10.8187C27.6714 11.0068 27.573 11.1651 27.4089 11.2485L26.4257 11.7342C26.2699 11.8127 26.0871 11.6973 26.0871 11.5187V10.458C26.0871 10.1747 25.8996 9.93543 25.6277 9.87113C24.8648 9.69256 24.2636 9.08189 24.0914 8.31047C24.0293 8.03191 23.7902 7.84143 23.5113 7.84143H6.48865C6.2074 7.84143 5.97184 8.0319 5.90857 8.31047C5.73279 9.08308 5.13397 9.69376 4.37224 9.87113C4.09802 9.93422 3.91051 10.1735 3.91051 10.458V11.4961C3.91051 11.5818 3.87183 11.6544 3.80035 11.6984C3.73004 11.7425 3.64918 11.7472 3.57418 11.7103L2.59333 11.2318C2.42692 11.1508 2.32614 10.9901 2.32614 10.802V8.24142C2.32614 7.13433 3.21795 6.23077 4.30779 6.23077L4.30657 6.23315ZM14.9989 8.92589C17.1446 8.92589 18.8848 10.6949 18.8848 12.877C18.8848 15.0566 17.1434 16.8244 14.9989 16.8244C12.8508 16.8244 11.113 15.0554 11.113 12.877C11.113 10.6949 12.8521 8.92589 14.9989 8.92589ZM7.52107 11.6567C8.18435 11.6567 8.72108 12.202 8.72108 12.8757C8.72108 13.3281 8.47615 13.7233 8.11523 13.934L6.33748 13.0638C6.32811 13.0031 6.32342 12.9388 6.32342 12.8757C6.32342 12.202 6.86014 11.6567 7.52107 11.6567ZM22.4731 11.6567C23.134 11.6567 23.6731 12.202 23.6731 12.8757C23.6731 12.9567 23.6637 13.0341 23.6485 13.1102L21.9317 13.9602C21.5426 13.7602 21.2754 13.3495 21.2754 12.8757C21.2754 12.202 21.8122 11.6567 22.4731 11.6567ZM16.3207 14.2126C16.1765 14.5376 15.9164 14.7495 15.5918 14.8768C15.4183 14.9423 15.2285 14.984 15.0199 15.0018L14.9496 15.7173C14.9449 15.7566 14.9309 15.7804 14.8922 15.7983C14.7844 15.8399 14.5055 15.8423 14.4035 15.7887C14.3578 15.7637 14.3414 15.7256 14.3508 15.6745L14.4211 14.9947C14.2266 14.9673 13.7836 14.8673 13.6441 14.7185C13.6172 14.6935 13.6008 14.6578 13.5914 14.6066C13.5668 14.5042 13.5621 14.1888 13.6031 14.084C13.6488 13.9721 13.7473 14.0186 13.8246 14.065C14.1223 14.2436 14.4234 14.3364 14.7703 14.3364C15.0281 14.3364 15.218 14.2876 15.3398 14.19C15.5297 14.0436 15.6 13.7352 15.4453 13.5424C15.3222 13.3841 15.1113 13.2864 14.9285 13.2198C14.6929 13.1317 14.4621 13.0484 14.2382 12.9246C14.0004 12.7924 13.8269 12.6186 13.7214 12.3627C13.6113 12.096 13.616 11.7056 13.7238 11.4365C13.8398 11.146 14.0578 10.9508 14.339 10.8306C14.4902 10.7675 14.6589 10.7258 14.8488 10.7008L14.9156 10.0318C14.9203 9.99011 14.9343 9.97106 14.973 9.95321C15.0644 9.90916 15.3749 9.91631 15.464 9.96273C15.5097 9.98416 15.5191 10.0282 15.5191 10.077L15.4546 10.7068C15.6421 10.7341 15.825 10.7829 15.9984 10.8675C16.0875 10.9091 16.1425 10.9532 16.1625 11.0555C16.1835 11.1579 16.1941 11.4615 16.1554 11.5615C16.1214 11.6615 16.0277 11.6103 15.9632 11.5758C15.7113 11.446 15.4289 11.346 15.1429 11.346C14.9812 11.346 14.7843 11.371 14.6542 11.4734C14.4831 11.6079 14.4574 11.8936 14.5898 12.0627C14.7128 12.2234 14.9285 12.3186 15.1136 12.3877C15.4546 12.5126 15.8566 12.6472 16.1214 12.9079C16.4484 13.2352 16.4988 13.7971 16.3207 14.2126ZM3.62707 23.161H12.2755C12.6962 23.161 13.0407 23.5098 13.0407 23.9383C13.0407 24.3657 12.6974 24.7157 12.2755 24.7157H3.62707C3.20638 24.7157 2.86183 24.3669 2.86183 23.9383C2.86183 23.511 3.20518 23.161 3.62707 23.161ZM3.62707 26.0001H10.1662C10.5869 26.0001 10.9314 26.3489 10.9314 26.7775C10.9314 27.2048 10.5881 27.5549 10.1662 27.5549H3.62707C3.20638 27.5549 2.86183 27.2061 2.86183 26.7775C2.86183 26.3501 3.20518 26.0001 3.62707 26.0001ZM21.0823 4.19038L16.3924 0.454748C16.0947 0.217854 15.7549 0.0666794 15.4045 0H14.5912C14.2396 0.0654726 13.901 0.217848 13.6033 0.454748L8.91101 4.19038C8.75281 4.31775 8.68952 4.5249 8.75749 4.72013C8.82429 4.91535 8.99773 5.04273 9.20281 5.04273H20.7951C20.999 5.04273 21.1725 4.91536 21.2381 4.72013C21.3049 4.5249 21.2451 4.31658 21.0846 4.19038H21.0823Z" fill="#C1BFD9"/>
</svg>
