<svg width="30" height="31" viewBox="0 0 30 31" fill="none" xmlns="http://www.w3.org/2000/svg">
<path d="M11.6663 16.6667L13.4181 15.656C13.9438 14.6039 17.0678 8.36436 17.4995 7.50125V7.5L12.8952 10.1551L11.6663 16.6667Z" fill="#C1BFD9"/>
<path d="M9.64271 11.2315C12.5462 9.38032 20.1853 4.511 22.9864 2.72513C23.332 2.50432 23.4371 2.0396 23.2194 1.68913C23.0016 1.33866 22.5432 1.23211 22.1975 1.45292L22.0316 1.55947C21.7885 1.71481 21.4656 1.61853 21.3441 1.35407C20.7502 0.0651392 19.1915 -0.38547 18.0227 0.36043L2.49976 10.2544L3.04804 11.1389L7.85725 11.6511C8.48025 11.7179 9.11342 11.5679 9.64271 11.2315ZM16.6692 2.1615C16.8933 2.019 17.1883 2.08704 17.3289 2.31427L17.5138 2.61339C17.6543 2.84062 17.5872 3.13975 17.3631 3.28225C17.139 3.42475 16.8439 3.35671 16.7034 3.12949L16.5185 2.83036C16.3792 2.60442 16.4463 2.304 16.6692 2.1615ZM15.1953 3.10252C15.4194 2.96002 15.7144 3.02806 15.855 3.25529L16.0398 3.55441C16.1804 3.78164 16.1133 4.08077 15.8892 4.22327C15.665 4.36578 15.37 4.29773 15.2294 4.0705L15.0446 3.77138C14.904 3.54415 14.9711 3.24502 15.1953 3.10252ZM13.7201 4.04225C13.9429 3.89976 14.2392 3.9678 14.3798 4.19502L14.5647 4.49415C14.7052 4.72138 14.6381 5.02051 14.414 5.16301C14.1899 5.30551 13.8948 5.23747 13.7543 5.01024L13.5694 4.71112C13.4288 4.48389 13.4972 4.18476 13.7201 4.04225ZM12.2462 4.98199C12.4703 4.83949 12.7653 4.90753 12.9059 5.13476L13.0908 5.43388C13.2921 5.75868 13.0578 6.17719 12.6868 6.17719C12.5273 6.17719 12.3728 6.09631 12.2816 5.94996L12.0967 5.65083C11.9549 5.4236 12.022 5.12449 12.2462 4.98199ZM10.771 5.92173C10.9951 5.77923 11.2901 5.84727 11.4307 6.0745L11.6156 6.37362C11.7561 6.60085 11.689 6.89998 11.4649 7.04248C11.2408 7.18498 10.9457 7.11694 10.8052 6.88972L10.6203 6.59059C10.4797 6.36465 10.5468 6.06423 10.771 5.92173ZM9.29706 6.86275C9.52118 6.72025 9.81623 6.78829 9.95678 7.01552L10.1417 7.31464C10.2822 7.54187 10.2151 7.841 9.99097 7.9835C9.76685 8.126 9.4718 8.05796 9.33125 7.83073L9.14638 7.53161C9.00582 7.30438 9.07293 7.00525 9.29706 6.86275ZM7.67121 8.47132C7.53066 8.24409 7.59777 7.94495 7.82189 7.80245C8.04602 7.65995 8.34106 7.72799 8.48162 7.95522L8.66649 8.25434C8.80704 8.48157 8.73993 8.78071 8.51581 8.92321C8.29168 9.06571 7.99663 8.99767 7.85608 8.77044L7.67121 8.47132Z" fill="#C1BFD9"/>
<path d="M25.1108 26.5049C24.4245 26.5854 23.8677 27.1676 23.0134 27.3604C22.1052 27.566 21.1983 27.4779 20.3914 27.105C19.8719 26.865 19.4742 26.4194 19.0894 26.3057C18.5596 26.15 18.0234 26.5662 17.4012 27.6158C17.1241 28.0843 16.797 29.0981 15.7977 29.0981C15.1204 29.0981 14.8177 28.6283 14.6176 28.318C13.8774 27.1714 12.7203 26.7654 11.4619 26.0836C9.61596 25.0851 9.58775 23.8185 10.5049 22.9465C11.2528 22.2353 12.356 22.0246 12.7716 21.2764C13.0461 20.781 13.2257 20.2996 13.3527 19.7825C13.726 18.2261 15.0395 18.3308 15.908 18.3997C16.838 18.4738 17.2382 18.4521 17.4653 17.9324C17.7116 17.3706 17.4525 17.1102 16.7059 16.5611C16.5584 16.4526 16.407 16.3415 16.2646 16.2228C15.7515 15.7938 15.3936 15.1707 15.2845 14.5131C15.255 14.3382 15.2435 14.1696 15.2358 14.0062L14.1852 16.284C14.1454 16.3696 14.0826 16.4411 14.003 16.4909L11.3143 18.1737C10.9603 18.3959 10.5074 18.0933 10.5793 17.6834L11.771 10.8333L9.98917 11.948C9.6595 12.1549 9.29902 12.3081 8.92445 12.4051C7.44668 14.4008 6.66675 16.7681 6.66675 19.2591C6.66675 25.6418 11.8826 30.8333 18.2939 30.8333C21.5791 30.8333 24.5501 29.4697 26.6666 27.2826C26.2266 26.6966 25.7047 26.436 25.1108 26.5049Z" fill="#C1BFD9"/>
<path d="M13.333 2.02942L9.20124 1.94959L9.40385 1.81093C9.63082 1.65547 9.69879 1.32912 9.55645 1.08122C9.4141 0.833328 9.1153 0.759095 8.88833 0.914559C7.36234 1.96359 7.47645 1.88094 7.43541 1.91457L4.14373 1.85015L2.49976 2.98178L9.00894 4.99999L13.333 2.02942Z" fill="#C1BFD9"/>
<path d="M25.714 13.3241C26.2114 13.4355 26.6238 13.7552 26.8171 14.1779C27.2217 15.0679 28.4626 15.2835 29.1661 14.586C28.3234 12.7429 26.9588 11.1601 25.2502 10C25.267 10.0739 25.2876 10.1526 25.3108 10.2422C25.5414 11.1165 25.477 11.4144 25.1613 12.0005C25.1291 12.0611 25.0982 12.1192 25.0711 12.1737C24.8417 12.6472 25.1922 13.2067 25.714 13.3241Z" fill="#C1BFD9"/>
<path d="M0.970618 6.79253C0.672062 6.62255 0.302075 6.62475 0.00585392 6.79911L0 6.8024L1.58646 9.16667L3.3333 8.13805L0.970618 6.79253Z" fill="#C1BFD9"/>
<path d="M29.3999 15.6055C28.149 16.479 26.2867 16.0325 25.6446 14.5762C25.5682 14.4036 25.4033 14.2764 25.1928 14.2284C24.0116 13.9545 23.3425 12.6891 23.8386 11.6364C23.9499 11.3989 24.084 11.1926 24.1242 11.0121C24.2301 10.5293 23.8118 9.92321 23.8949 9.0536C22.2418 8.1321 20.3473 7.57658 18.3335 7.5C18.7491 7.78554 19.2479 8.02175 19.7306 8.2969C21.6478 9.39235 22.4523 11.3509 21.7336 13.1706C21.1638 14.6152 20.9292 16.6969 21.9844 18.2077C22.7057 19.2435 23.9137 19.9431 25.414 19.9495C28.2015 19.9495 28.8061 22.5259 29.2473 23.3333C30.1751 20.9114 30.2674 18.1716 29.3999 15.6055Z" fill="#C1BFD9"/>
<path d="M25.1899 21.0642C23.4917 21.0642 22.0499 20.2178 21.1874 18.9143C20.1743 17.3821 20.0486 15.186 20.8518 13.0401C21.4313 11.49 20.53 10.0953 19.3773 9.40055C18.8104 9.05893 18.2045 8.76484 17.703 8.33332L16.8457 10.2405L16.8922 10.2109C17.1147 10.0684 17.4076 10.1364 17.5471 10.3638C17.6867 10.5911 17.62 10.8903 17.3976 11.0329L16.123 11.8523L15.7861 12.6023C16.1192 13.2572 15.9985 13.9315 16.0865 14.4734C16.1582 14.9114 16.3894 15.3249 16.7213 15.61C17.3712 16.1687 18.823 16.8969 18.1568 18.4598C17.6414 19.6696 16.5101 19.5771 15.6843 19.5091C14.6812 19.4269 14.343 19.459 14.1796 20.1589C14.0351 20.7792 13.8101 21.3636 13.5172 21.9043C13.1527 22.5785 12.5317 22.9291 11.9836 23.2373C11.5701 23.4698 10.7744 23.9065 10.8373 24.3906C10.8775 24.6988 11.2671 25.0931 11.8554 25.4193C13.1992 26.1668 14.421 26.6086 15.2935 27.9943C15.4896 28.3064 15.531 28.3333 15.6517 28.3333C15.971 28.3333 16.1407 27.7785 16.4047 27.32C16.7189 26.7755 17.6742 25.1175 19.1462 25.5631C19.737 25.7416 20.1518 26.2271 20.5528 26.4172C21.1511 26.701 21.8286 26.7665 22.5112 26.6073C23.1761 26.4519 23.7543 25.838 24.6657 25.7288C25.5292 25.6248 26.3199 25.9792 26.9396 26.737C27.4826 26.055 27.9515 25.3088 28.3336 24.5126C28.0784 24.1749 27.8685 23.7908 27.7089 23.3657C27.0955 21.7321 26.3652 21.0642 25.1899 21.0642ZM21.1662 23.7779C20.3843 24.6332 19.0544 24.6383 18.2675 23.7817C18.1431 23.6456 18.0098 23.6738 17.9922 23.6713C17.0445 23.6713 16.2991 22.8313 16.4046 21.8553C16.5278 20.7187 17.7622 20.0406 18.7678 20.6121C19.3159 20.3065 19.7986 20.3784 19.874 20.3733C21.5106 20.5043 22.3038 22.5323 21.1662 23.7779Z" fill="#C1BFD9"/>
<path d="M19.9028 20.8374C19.6383 20.8116 19.3812 20.9102 19.1781 21.1165C18.9985 21.2985 18.7365 21.2879 18.5667 21.0922C18.1854 20.6523 17.5604 20.942 17.5038 21.5716C17.4607 22.057 17.7683 22.4454 18.1337 22.4454C18.1423 22.4469 18.6688 22.3968 19.081 22.9384C19.7244 23.7849 20.8968 23.1781 20.8304 21.9948C20.7959 21.382 20.3973 20.8844 19.9028 20.8374Z" fill="#C1BFD9"/>
</svg>
