<svg width="23" height="23" viewBox="0 0 23 23" fill="none" xmlns="http://www.w3.org/2000/svg">
<path d="M2.87149 0C1.29519 0 0 1.29519 0 2.87149V7.66167C0 9.23798 1.29519 10.5425 2.87149 10.5425H7.66916C9.24546 10.5425 10.5407 9.23798 10.5407 7.66167V2.87149C10.5407 1.29519 9.24546 0 7.66916 0H2.87149ZM15.3308 0C13.7545 0 12.4593 1.29519 12.4593 2.87149V7.66167C12.4593 9.23798 13.7545 10.5425 15.3308 10.5425H20.1285C21.7048 10.5425 23 9.23798 23 7.66167V2.87149C23 1.29519 21.7048 0 20.1285 0H15.3308ZM2.87149 12.4593C1.29519 12.4593 0 13.7545 0 15.3308V20.1285C0 21.7048 1.29519 23 2.87149 23H7.66916C9.24546 23 10.5407 21.7048 10.5407 20.1285V15.3308C10.5407 13.7545 9.24546 12.4593 7.66916 12.4593H2.87149ZM15.3308 12.4593C13.7545 12.4593 12.4593 13.7545 12.4593 15.3308V20.1285C12.4593 21.7048 13.7545 23 15.3308 23H20.1285C21.7048 23 23 21.7048 23 20.1285V15.3308C23 13.7545 21.7048 12.4593 20.1285 12.4593H15.3308Z" fill="#C1BFD9"/>
</svg>
